# xmcd
#
# Track frame offsets:
#	150
#	16175
#	35427
#	54297
#	69989
#	95888
#	112479
#	136705
#	162005
#	183839
#	203394
#	222918
#	241936
#	259616
#	275494
#	292869
#	312608
#
# Disc length: 4393 seconds
#
# Revision: 0
# Processed by: cddbd v1.4PL0 Copyright (c) Steve Scherf et al.
# Submitted via: dBpowerAMP V4.0
#
DISCID=ec112711
DTITLE=Celine Dion - A New Day Has Come
DYEAR=2002
DGENRE=Country
TTITLE0=I'm Alive
TTITLE1=Right In Front Of You
TTITLE2=Have You Ever Been In Love
TTITLE3=Rain, Tax (It's Inevitable)
TTITLE4=A New Day Has Come (Radio Remix)
TTITLE5=Ten Days
TTITLE6=Goodbye's (The Saddest Word)
TTITLE7=Prayer
TTITLE8=I Surrender
TTITLE9=At Last
TTITLE10=Super Love
TTITLE11=Sorry For Love
TTITLE12=Aun Existe Amor
TTITLE13=The Greatest Reward
TTITLE14=When Wrong One Loves You Right
TTITLE15=A New Day Has Come
TTITLE16=Nature Boy
EXTD=Ozan KARPINAR TURKEY
EXTT0=
EXTT1=
EXTT2=
EXTT3=
EXTT4=
EXTT5=
EXTT6=
EXTT7=
EXTT8=
EXTT9=
EXTT10=
EXTT11=
EXTT12=
EXTT13=
EXTT14=
EXTT15=
EXTT16=
PLAYORDER=
